<svg id="visual" viewBox="0 0 900 600" width="900" height="600" xmlns="http://www.w3.org/2000/svg" xmlns:xlink="http://www.w3.org/1999/xlink" version="1.1"><rect x="0" y="0" width="900" height="600" fill="#27272A"></rect><path d="M0 44L30 49C60 54 120 64 180 66.8C240 69.7 300 65.3 360 59.5C420 53.7 480 46.3 540 48C600 49.7 660 60.3 720 66.2C780 72 840 73 870 73.5L900 74L900 0L870 0C840 0 780 0 720 0C660 0 600 0 540 0C480 0 420 0 360 0C300 0 240 0 180 0C120 0 60 0 30 0L0 0Z" fill="#FFFFFF" stroke-linecap="round" stroke-linejoin="miter"></path></svg>